<?xml version="1.0" encoding="UTF-8" standalone="no"?>
<!DOCTYPE svg PUBLIC "-//W3C//DTD SVG 1.1//EN" "http://www.w3.org/Graphics/SVG/1.1/DTD/svg11.dtd">
<svg width="100%" height="100%" viewBox="0 0 150 43" version="1.1" xmlns="http://www.w3.org/2000/svg" xmlns:xlink="http://www.w3.org/1999/xlink" xml:space="preserve" xmlns:serif="http://www.serif.com/" style="fill-rule:evenodd;clip-rule:evenodd;stroke-linejoin:round;stroke-miterlimit:2;">
    <g transform="matrix(1,0,0,1,-109.556,-206.132)">
        <g transform="matrix(0.684629,0,0,1.25788,-92.7196,-181.153)">
            <rect x="307.507" y="311.659" width="194.792" height="26.104" style="fill:rgb(197,253,200);"/>
        </g>
        <g transform="matrix(-0.352059,0,0,0.321851,392.405,146.931)">
            <path d="M384.007,184.494C381.935,183.278 379.35,184.132 378.239,186.398C377.127,188.665 377.907,191.493 379.98,192.708L396.913,202.643L396.913,296.74L379.98,306.675C377.907,307.891 377.127,310.718 378.239,312.985C379.35,315.251 381.935,316.105 384.007,314.889L403.187,303.636C404.571,302.825 405.434,301.247 405.434,299.529L405.434,199.854C405.434,198.137 404.571,196.558 403.187,195.747L384.007,184.494Z"/>
        </g>
        <g transform="matrix(0.352059,0,0,0.321851,-23.4283,146.931)">
            <path d="M379.98,192.708C377.907,191.493 377.127,188.665 378.239,186.398C379.35,184.132 381.935,183.278 384.007,184.494L403.187,195.747C404.571,196.558 405.434,198.137 405.434,199.854L405.434,299.529C405.434,301.247 404.571,302.825 403.187,303.636L384.007,314.889C381.935,316.105 379.35,315.251 378.239,312.985C377.127,310.718 377.907,307.891 379.98,306.675L396.913,296.74L396.913,202.643L379.98,192.708Z"/>
        </g>
        <g transform="matrix(0.836572,0,0,0.836572,-227.8,15.9536)">
            <path d="M433.234,260.355C432.338,260.355 431.538,260.203 430.834,259.899C430.13,259.595 429.522,259.187 429.01,258.675L429.01,265.347C429.01,265.827 428.842,266.195 428.506,266.451C428.17,266.707 427.794,266.835 427.378,266.835C426.962,266.835 426.586,266.707 426.25,266.451C425.914,266.195 425.746,265.827 425.746,265.347L425.746,247.587C425.746,247.043 425.914,246.635 426.25,246.363C426.586,246.091 426.962,245.955 427.378,245.955C427.762,245.955 428.114,246.075 428.434,246.315C428.754,246.555 428.946,246.899 429.01,247.347C429.522,246.867 430.13,246.475 430.834,246.171C431.538,245.867 432.338,245.715 433.234,245.715C434.642,245.715 435.882,246.027 436.954,246.651C438.026,247.275 438.866,248.131 439.474,249.219C440.082,250.307 440.386,251.539 440.386,252.915C440.386,254.323 440.082,255.595 439.474,256.731C438.866,257.867 438.026,258.755 436.954,259.395C435.882,260.035 434.642,260.355 433.234,260.355ZM432.946,257.379C434.194,257.379 435.202,256.971 435.97,256.155C436.738,255.339 437.122,254.259 437.122,252.915C437.122,251.635 436.738,250.611 435.97,249.843C435.202,249.075 434.194,248.691 432.946,248.691C431.73,248.691 430.77,249.075 430.066,249.843C429.362,250.611 429.01,251.635 429.01,252.915C429.01,254.259 429.362,255.339 430.066,256.155C430.77,256.971 431.73,257.379 432.946,257.379Z" style="fill-rule:nonzero;"/>
        </g>
        <g transform="matrix(0.836572,0,0,0.836572,-227.8,15.9536)">
            <path d="M449.938,260.355C448.562,260.355 447.33,260.035 446.242,259.395C445.154,258.755 444.306,257.867 443.698,256.731C443.09,255.595 442.786,254.323 442.786,252.915C442.786,251.539 443.09,250.307 443.698,249.219C444.306,248.131 445.154,247.275 446.242,246.651C447.33,246.027 448.562,245.715 449.938,245.715C450.834,245.715 451.634,245.867 452.338,246.171C453.042,246.475 453.65,246.867 454.162,247.347C454.226,246.899 454.418,246.555 454.738,246.315C455.058,246.075 455.41,245.955 455.794,245.955C456.21,245.955 456.586,246.091 456.922,246.363C457.258,246.635 457.426,247.043 457.426,247.587L457.426,258.867C457.426,259.347 457.258,259.715 456.922,259.971C456.586,260.227 456.21,260.355 455.794,260.355C455.378,260.355 455.002,260.227 454.666,259.971C454.33,259.715 454.162,259.347 454.162,258.867L454.162,258.675C453.65,259.187 453.042,259.595 452.338,259.899C451.634,260.203 450.834,260.355 449.938,260.355ZM450.226,257.379C451.442,257.379 452.402,256.971 453.106,256.155C453.81,255.339 454.162,254.259 454.162,252.915C454.162,251.635 453.81,250.611 453.106,249.843C452.402,249.075 451.442,248.691 450.226,248.691C448.978,248.691 447.97,249.075 447.202,249.843C446.434,250.611 446.05,251.635 446.05,252.915C446.05,254.259 446.434,255.339 447.202,256.155C447.97,256.971 448.978,257.379 450.226,257.379Z" style="fill-rule:nonzero;"/>
        </g>
        <g transform="matrix(0.836572,0,0,0.836572,-227.8,15.9536)">
            <path d="M466.93,266.595C466.258,266.595 465.506,266.531 464.674,266.403C463.842,266.275 463.026,266.003 462.226,265.587C461.618,265.267 461.314,264.771 461.314,264.099C461.314,263.715 461.45,263.363 461.722,263.043C461.994,262.723 462.338,262.563 462.754,262.563C463.042,262.563 463.33,262.643 463.618,262.803C464.226,263.123 464.834,263.347 465.442,263.475C466.05,263.603 466.642,263.667 467.218,263.667C468.37,263.667 469.362,263.371 470.194,262.779C471.026,262.187 471.442,261.251 471.442,259.971L471.442,258.627C470.898,259.171 470.266,259.595 469.546,259.899C468.826,260.203 468.018,260.355 467.122,260.355C465.81,260.355 464.618,260.035 463.546,259.395C462.474,258.755 461.626,257.875 461.002,256.755C460.378,255.635 460.066,254.371 460.066,252.963C460.066,251.555 460.37,250.291 460.978,249.171C461.586,248.051 462.418,247.171 463.474,246.531C464.53,245.891 465.73,245.619 467.074,245.715C468.002,245.779 468.826,245.963 469.546,246.267C470.266,246.571 470.898,246.979 471.442,247.491C471.442,247.043 471.594,246.675 471.898,246.387C472.202,246.099 472.594,245.955 473.074,245.955C473.554,245.955 473.946,246.099 474.25,246.387C474.554,246.675 474.706,247.043 474.706,247.491L474.706,260.067C474.706,261.539 474.362,262.763 473.674,263.739C472.986,264.715 472.05,265.435 470.866,265.899C469.682,266.363 468.37,266.595 466.93,266.595ZM467.506,257.379C468.722,257.379 469.682,256.971 470.386,256.155C471.09,255.339 471.442,254.259 471.442,252.915C471.442,251.635 471.09,250.611 470.386,249.843C469.682,249.075 468.722,248.691 467.506,248.691C466.258,248.691 465.25,249.075 464.482,249.843C463.714,250.611 463.33,251.651 463.33,252.963C463.33,254.243 463.706,255.299 464.458,256.131C465.21,256.963 466.226,257.379 467.506,257.379Z" style="fill-rule:nonzero;"/>
        </g>
        <g transform="matrix(0.836572,0,0,0.836572,-227.8,15.9536)">
            <path d="M485.218,260.355C482.818,260.355 480.946,259.667 479.602,258.291C478.258,256.915 477.586,255.059 477.586,252.723C477.586,250.675 478.266,248.995 479.626,247.683C480.986,246.371 482.738,245.715 484.882,245.715C486.962,245.715 488.626,246.315 489.874,247.515C491.122,248.715 491.746,250.195 491.746,251.955C491.746,252.659 491.562,253.187 491.194,253.539C490.826,253.891 490.354,254.067 489.778,254.067L481.426,254.067C481.106,254.067 480.994,254.243 481.09,254.595C481.346,255.491 481.866,256.187 482.65,256.683C483.434,257.179 484.322,257.427 485.314,257.427C486.05,257.427 486.762,257.331 487.45,257.139C488.138,256.947 488.738,256.659 489.25,256.275C489.41,256.147 489.618,256.083 489.874,256.083C490.226,256.083 490.546,256.235 490.834,256.539C491.122,256.843 491.266,257.203 491.266,257.619C491.266,257.811 491.234,258.003 491.17,258.195C491.106,258.387 490.962,258.579 490.738,258.771C489.906,259.379 489.018,259.795 488.074,260.019C487.13,260.243 486.178,260.355 485.218,260.355ZM488.002,251.571C488.194,251.571 488.29,251.475 488.29,251.283C488.29,250.547 487.962,249.907 487.306,249.363C486.65,248.819 485.842,248.547 484.882,248.547C484.05,248.547 483.258,248.771 482.506,249.219C481.754,249.667 481.298,250.259 481.138,250.995L481.138,251.043C481.106,251.171 481.098,251.283 481.114,251.379C481.13,251.475 481.266,251.523 481.522,251.523L488.002,251.571Z" style="fill-rule:nonzero;"/>
        </g>
        <g transform="matrix(0.836572,0,0,0.836572,-227.8,15.9536)">
            <path d="M496.258,260.355C495.842,260.355 495.466,260.227 495.13,259.971C494.794,259.715 494.626,259.347 494.626,258.867L494.626,247.587C494.626,247.043 494.794,246.635 495.13,246.363C495.466,246.091 495.842,245.955 496.258,245.955C496.578,245.955 496.882,246.027 497.17,246.171C497.458,246.315 497.666,246.563 497.794,246.915C497.858,247.107 497.89,247.283 497.89,247.443C498.37,246.931 498.994,246.515 499.762,246.195C500.53,245.875 501.282,245.715 502.018,245.715C504.098,245.715 505.634,246.547 506.626,248.211C507.01,247.539 507.642,246.955 508.522,246.459C509.402,245.963 510.482,245.715 511.762,245.715C513.49,245.715 514.866,246.291 515.89,247.443C516.914,248.595 517.426,250.291 517.426,252.531L517.426,258.867C517.426,259.347 517.25,259.715 516.898,259.971C516.546,260.227 516.178,260.355 515.794,260.355C515.378,260.355 515.002,260.227 514.666,259.971C514.33,259.715 514.162,259.347 514.162,258.867L514.162,252.819C514.162,250.067 513.138,248.691 511.09,248.691C509.938,248.691 509.106,248.995 508.594,249.603C508.082,250.211 507.762,250.931 507.634,251.763L507.634,258.867C507.634,259.347 507.458,259.715 507.106,259.971C506.754,260.227 506.386,260.355 506.002,260.355C505.586,260.355 505.21,260.227 504.874,259.971C504.538,259.715 504.37,259.347 504.37,258.867L504.37,252.819C504.37,251.411 504.098,250.371 503.554,249.699C503.01,249.027 502.274,248.691 501.346,248.691C499.97,248.691 499.05,249.115 498.586,249.963C498.122,250.811 497.89,251.747 497.89,252.771L497.89,258.867C497.89,259.347 497.722,259.715 497.386,259.971C497.05,260.227 496.674,260.355 496.258,260.355Z" style="fill-rule:nonzero;"/>
        </g>
        <g transform="matrix(0.836572,0,0,0.836572,-227.8,15.9536)">
            <path d="M527.218,260.355C525.842,260.355 524.61,260.035 523.522,259.395C522.434,258.755 521.586,257.867 520.978,256.731C520.37,255.595 520.066,254.323 520.066,252.915C520.066,251.539 520.37,250.307 520.978,249.219C521.586,248.131 522.434,247.275 523.522,246.651C524.61,246.027 525.842,245.715 527.218,245.715C528.114,245.715 528.914,245.867 529.618,246.171C530.322,246.475 530.93,246.867 531.442,247.347C531.506,246.899 531.698,246.555 532.018,246.315C532.338,246.075 532.69,245.955 533.074,245.955C533.49,245.955 533.866,246.091 534.202,246.363C534.538,246.635 534.706,247.043 534.706,247.587L534.706,258.867C534.706,259.347 534.538,259.715 534.202,259.971C533.866,260.227 533.49,260.355 533.074,260.355C532.658,260.355 532.282,260.227 531.946,259.971C531.61,259.715 531.442,259.347 531.442,258.867L531.442,258.675C530.93,259.187 530.322,259.595 529.618,259.899C528.914,260.203 528.114,260.355 527.218,260.355ZM527.506,257.379C528.722,257.379 529.682,256.971 530.386,256.155C531.09,255.339 531.442,254.259 531.442,252.915C531.442,251.635 531.09,250.611 530.386,249.843C529.682,249.075 528.722,248.691 527.506,248.691C526.258,248.691 525.25,249.075 524.482,249.843C523.714,250.611 523.33,251.635 523.33,252.915C523.33,254.259 523.714,255.339 524.482,256.155C525.25,256.971 526.258,257.379 527.506,257.379Z" style="fill-rule:nonzero;"/>
        </g>
        <g transform="matrix(0.836572,0,0,0.836572,-227.8,15.9536)">
            <path d="M541.57,252.771L541.57,258.867C541.57,259.347 541.402,259.715 541.066,259.971C540.73,260.227 540.354,260.355 539.938,260.355C539.522,260.355 539.146,260.227 538.81,259.971C538.474,259.715 538.306,259.347 538.306,258.867L538.306,247.587C538.306,247.043 538.474,246.635 538.81,246.363C539.146,246.091 539.522,245.955 539.938,245.955C540.354,245.955 540.73,246.091 541.066,246.363C541.402,246.635 541.57,247.043 541.57,247.587L541.57,247.779C542.018,247.171 542.602,246.675 543.322,246.291C544.042,245.907 544.802,245.715 545.602,245.715C545.986,245.715 546.37,245.763 546.754,245.859C547.138,245.955 547.426,246.147 547.618,246.435C547.81,246.723 547.906,247.043 547.906,247.395C547.906,247.811 547.77,248.187 547.498,248.523C547.226,248.859 546.834,249.027 546.322,249.027C546.098,249.027 545.866,248.995 545.626,248.931C545.386,248.867 545.09,248.835 544.738,248.835C543.81,248.835 543.05,249.187 542.458,249.891C541.866,250.595 541.57,251.555 541.57,252.771Z" style="fill-rule:nonzero;"/>
        </g>
        <g transform="matrix(0.836572,0,0,0.836572,-227.8,15.9536)">
            <path d="M551.698,260.355C551.282,260.355 550.906,260.227 550.57,259.971C550.234,259.715 550.066,259.347 550.066,258.867L550.066,240.627C550.066,240.083 550.234,239.675 550.57,239.403C550.906,239.131 551.282,238.995 551.698,238.995C552.114,238.995 552.49,239.131 552.826,239.403C553.162,239.675 553.33,240.083 553.33,240.627L553.33,249.987C553.33,250.307 553.378,250.467 553.474,250.467C553.57,250.467 553.698,250.403 553.858,250.275L559.81,246.003C560.162,245.811 560.482,245.715 560.77,245.715C561.218,245.715 561.586,245.867 561.874,246.171C562.162,246.475 562.306,246.803 562.306,247.155C562.306,247.699 562.05,248.131 561.538,248.451L556.642,251.523C556.354,251.715 556.21,251.907 556.21,252.099C556.21,252.291 556.322,252.499 556.546,252.723L561.778,257.667C562.13,258.083 562.306,258.467 562.306,258.819C562.306,259.235 562.146,259.595 561.826,259.899C561.506,260.203 561.138,260.355 560.722,260.355C560.306,260.355 559.922,260.179 559.57,259.827L553.954,254.259C553.73,254.035 553.586,253.923 553.522,253.923C553.394,253.923 553.33,254.115 553.33,254.499L553.33,258.867C553.33,259.347 553.162,259.715 552.826,259.971C552.49,260.227 552.114,260.355 551.698,260.355Z" style="fill-rule:nonzero;"/>
        </g>
    </g>
</svg>
